<mxfile host="app.diagrams.net" modified="2023-02-06T02:58:50.723Z" agent="5.0 (Windows NT 10.0; Win64; x64) AppleWebKit/537.36 (KHTML, like Gecko) Chrome/100.0.4896.60 Safari/537.36" version="20.7.4" etag="TqyOGx3-Z1SygxHWgMEQ" type="github">
  <diagram id="_yCclNhYavrccsSiJ5_n" name="第 1 页">
    <mxGraphModel dx="1050" dy="580" grid="1" gridSize="10" guides="1" tooltips="1" connect="1" arrows="1" fold="1" page="1" pageScale="1" pageWidth="300000" pageHeight="30000" math="0" shadow="0">
      <root>
        <mxCell id="0" />
        <mxCell id="1" parent="0" />
        <mxCell id="GE1TyS7wBmHGpNUDIyJN-11" style="edgeStyle=orthogonalEdgeStyle;rounded=0;orthogonalLoop=1;jettySize=auto;html=1;entryX=0;entryY=0.5;entryDx=0;entryDy=0;" edge="1" parent="1" source="GE1TyS7wBmHGpNUDIyJN-7" target="GE1TyS7wBmHGpNUDIyJN-8">
          <mxGeometry relative="1" as="geometry">
            <Array as="points">
              <mxPoint x="280" y="75" />
            </Array>
          </mxGeometry>
        </mxCell>
        <mxCell id="GE1TyS7wBmHGpNUDIyJN-12" value="1：n" style="edgeLabel;html=1;align=center;verticalAlign=middle;resizable=0;points=[];" vertex="1" connectable="0" parent="GE1TyS7wBmHGpNUDIyJN-11">
          <mxGeometry x="0.2394" y="1" relative="1" as="geometry">
            <mxPoint as="offset" />
          </mxGeometry>
        </mxCell>
        <mxCell id="GE1TyS7wBmHGpNUDIyJN-13" value="1：n" style="edgeStyle=orthogonalEdgeStyle;rounded=0;orthogonalLoop=1;jettySize=auto;html=1;" edge="1" parent="1" source="GE1TyS7wBmHGpNUDIyJN-7" target="GE1TyS7wBmHGpNUDIyJN-9">
          <mxGeometry relative="1" as="geometry" />
        </mxCell>
        <mxCell id="GE1TyS7wBmHGpNUDIyJN-14" value="1：n" style="edgeStyle=orthogonalEdgeStyle;rounded=0;orthogonalLoop=1;jettySize=auto;html=1;entryX=0;entryY=0.5;entryDx=0;entryDy=0;" edge="1" parent="1" source="GE1TyS7wBmHGpNUDIyJN-7" target="GE1TyS7wBmHGpNUDIyJN-10">
          <mxGeometry relative="1" as="geometry">
            <Array as="points">
              <mxPoint x="280" y="405" />
            </Array>
          </mxGeometry>
        </mxCell>
        <mxCell id="GE1TyS7wBmHGpNUDIyJN-7" value="&lt;div style=&quot;box-sizing:border-box;width:100%;background:#e4e4e4;padding:2px;&quot;&gt;榜样墙&lt;/div&gt;&lt;table style=&quot;width:100%;font-size:1em;&quot; cellpadding=&quot;2&quot; cellspacing=&quot;0&quot;&gt;&lt;tbody&gt;&lt;tr&gt;&lt;td&gt;PK&lt;/td&gt;&lt;td&gt;榜样墙Id&lt;/td&gt;&lt;/tr&gt;&lt;tr&gt;&lt;td&gt;&lt;br&gt;&lt;/td&gt;&lt;td&gt;&lt;br&gt;&lt;/td&gt;&lt;/tr&gt;&lt;tr&gt;&lt;td&gt;&lt;/td&gt;&lt;td&gt;&lt;br&gt;&lt;/td&gt;&lt;/tr&gt;&lt;/tbody&gt;&lt;/table&gt;" style="verticalAlign=top;align=left;overflow=fill;html=1;labelBackgroundColor=#fafafa;" vertex="1" parent="1">
          <mxGeometry x="190" y="180" width="180" height="90" as="geometry" />
        </mxCell>
        <mxCell id="GE1TyS7wBmHGpNUDIyJN-15" value="1：n" style="edgeStyle=orthogonalEdgeStyle;rounded=0;orthogonalLoop=1;jettySize=auto;html=1;" edge="1" parent="1" source="GE1TyS7wBmHGpNUDIyJN-8" target="GE1TyS7wBmHGpNUDIyJN-9">
          <mxGeometry relative="1" as="geometry" />
        </mxCell>
        <mxCell id="GE1TyS7wBmHGpNUDIyJN-19" value="1：n" style="edgeStyle=orthogonalEdgeStyle;rounded=0;orthogonalLoop=1;jettySize=auto;html=1;entryX=1;entryY=0.5;entryDx=0;entryDy=0;" edge="1" parent="1" source="GE1TyS7wBmHGpNUDIyJN-8" target="GE1TyS7wBmHGpNUDIyJN-10">
          <mxGeometry relative="1" as="geometry">
            <mxPoint x="890" y="80" as="targetPoint" />
            <Array as="points">
              <mxPoint x="790" y="80" />
              <mxPoint x="790" y="405" />
            </Array>
          </mxGeometry>
        </mxCell>
        <mxCell id="GE1TyS7wBmHGpNUDIyJN-8" value="&lt;div style=&quot;box-sizing:border-box;width:100%;background:#e4e4e4;padding:2px;&quot;&gt;主题&lt;/div&gt;&lt;table style=&quot;width:100%;font-size:1em;&quot; cellpadding=&quot;2&quot; cellspacing=&quot;0&quot;&gt;&lt;tbody&gt;&lt;tr&gt;&lt;td&gt;PK&lt;/td&gt;&lt;td&gt;主题Id&lt;/td&gt;&lt;/tr&gt;&lt;tr&gt;&lt;td&gt;&lt;br&gt;&lt;/td&gt;&lt;td&gt;榜样墙Id&lt;/td&gt;&lt;/tr&gt;&lt;tr&gt;&lt;td&gt;&lt;/td&gt;&lt;td&gt;&lt;br&gt;&lt;/td&gt;&lt;/tr&gt;&lt;/tbody&gt;&lt;/table&gt;" style="verticalAlign=top;align=left;overflow=fill;html=1;labelBackgroundColor=#fafafa;" vertex="1" parent="1">
          <mxGeometry x="520" y="30" width="180" height="90" as="geometry" />
        </mxCell>
        <mxCell id="GE1TyS7wBmHGpNUDIyJN-16" value="1：n" style="edgeStyle=orthogonalEdgeStyle;rounded=0;orthogonalLoop=1;jettySize=auto;html=1;" edge="1" parent="1" source="GE1TyS7wBmHGpNUDIyJN-9" target="GE1TyS7wBmHGpNUDIyJN-10">
          <mxGeometry relative="1" as="geometry" />
        </mxCell>
        <mxCell id="GE1TyS7wBmHGpNUDIyJN-9" value="&lt;div style=&quot;box-sizing:border-box;width:100%;background:#e4e4e4;padding:2px;&quot;&gt;上榜人员分组&lt;/div&gt;&lt;table style=&quot;width:100%;font-size:1em;&quot; cellpadding=&quot;2&quot; cellspacing=&quot;0&quot;&gt;&lt;tbody&gt;&lt;tr&gt;&lt;td&gt;PK&lt;/td&gt;&lt;td&gt;人员分组Id&lt;/td&gt;&lt;/tr&gt;&lt;tr&gt;&lt;td&gt;&lt;br&gt;&lt;/td&gt;&lt;td&gt;榜样墙Id&lt;br&gt;主题Id&lt;/td&gt;&lt;/tr&gt;&lt;tr&gt;&lt;td&gt;&lt;/td&gt;&lt;td&gt;&lt;br&gt;&lt;/td&gt;&lt;/tr&gt;&lt;/tbody&gt;&lt;/table&gt;" style="verticalAlign=top;align=left;overflow=fill;html=1;labelBackgroundColor=#fafafa;" vertex="1" parent="1">
          <mxGeometry x="520" y="180" width="180" height="90" as="geometry" />
        </mxCell>
        <mxCell id="GE1TyS7wBmHGpNUDIyJN-10" value="&lt;div style=&quot;box-sizing:border-box;width:100%;background:#e4e4e4;padding:2px;&quot;&gt;上榜人员&lt;/div&gt;&lt;table style=&quot;width:100%;font-size:1em;&quot; cellpadding=&quot;2&quot; cellspacing=&quot;0&quot;&gt;&lt;tbody&gt;&lt;tr&gt;&lt;td&gt;PK&lt;/td&gt;&lt;td&gt;Id&lt;/td&gt;&lt;/tr&gt;&lt;tr&gt;&lt;td&gt;&lt;br&gt;&lt;/td&gt;&lt;td&gt;榜样墙Id&lt;br&gt;主题Id&lt;br&gt;人员分组Id&lt;/td&gt;&lt;/tr&gt;&lt;tr&gt;&lt;td&gt;&lt;/td&gt;&lt;td&gt;&lt;br&gt;&lt;/td&gt;&lt;/tr&gt;&lt;/tbody&gt;&lt;/table&gt;" style="verticalAlign=top;align=left;overflow=fill;html=1;labelBackgroundColor=#fafafa;" vertex="1" parent="1">
          <mxGeometry x="520" y="360" width="180" height="90" as="geometry" />
        </mxCell>
        <mxCell id="GE1TyS7wBmHGpNUDIyJN-20" value="&lt;div style=&quot;box-sizing:border-box;width:100%;background:#e4e4e4;padding:2px;&quot;&gt;活动圈&lt;/div&gt;&lt;table style=&quot;width:100%;font-size:1em;&quot; cellpadding=&quot;2&quot; cellspacing=&quot;0&quot;&gt;&lt;tbody&gt;&lt;tr&gt;&lt;td&gt;PK&lt;/td&gt;&lt;td&gt;Id&lt;/td&gt;&lt;/tr&gt;&lt;tr&gt;&lt;td&gt;&lt;br&gt;&lt;/td&gt;&lt;td&gt;&lt;br&gt;&lt;/td&gt;&lt;/tr&gt;&lt;tr&gt;&lt;td&gt;&lt;/td&gt;&lt;td&gt;&lt;br&gt;&lt;/td&gt;&lt;/tr&gt;&lt;/tbody&gt;&lt;/table&gt;" style="verticalAlign=top;align=left;overflow=fill;html=1;labelBackgroundColor=#fafafa;" vertex="1" parent="1">
          <mxGeometry x="100" y="920" width="180" height="90" as="geometry" />
        </mxCell>
        <mxCell id="GE1TyS7wBmHGpNUDIyJN-21" value="&lt;div style=&quot;box-sizing:border-box;width:100%;background:#e4e4e4;padding:2px;&quot;&gt;活动&lt;/div&gt;&lt;table style=&quot;width:100%;font-size:1em;&quot; cellpadding=&quot;2&quot; cellspacing=&quot;0&quot;&gt;&lt;tbody&gt;&lt;tr&gt;&lt;td&gt;PK&lt;/td&gt;&lt;td&gt;Id&lt;/td&gt;&lt;/tr&gt;&lt;tr&gt;&lt;td&gt;&lt;br&gt;&lt;/td&gt;&lt;td&gt;活动圈Id&lt;/td&gt;&lt;/tr&gt;&lt;tr&gt;&lt;td&gt;&lt;/td&gt;&lt;td&gt;&lt;br&gt;&lt;/td&gt;&lt;/tr&gt;&lt;/tbody&gt;&lt;/table&gt;" style="verticalAlign=top;align=left;overflow=fill;html=1;labelBackgroundColor=#fafafa;" vertex="1" parent="1">
          <mxGeometry x="490" y="780" width="180" height="90" as="geometry" />
        </mxCell>
        <mxCell id="GE1TyS7wBmHGpNUDIyJN-22" value="&lt;div style=&quot;box-sizing:border-box;width:100%;background:#e4e4e4;padding:2px;&quot;&gt;专栏&lt;/div&gt;&lt;table style=&quot;width:100%;font-size:1em;&quot; cellpadding=&quot;2&quot; cellspacing=&quot;0&quot;&gt;&lt;tbody&gt;&lt;tr&gt;&lt;td&gt;PK&lt;/td&gt;&lt;td&gt;Id&lt;/td&gt;&lt;/tr&gt;&lt;tr&gt;&lt;td&gt;&lt;br&gt;&lt;/td&gt;&lt;td&gt;活动圈Id&lt;br&gt;活动Id&lt;/td&gt;&lt;/tr&gt;&lt;tr&gt;&lt;td&gt;&lt;/td&gt;&lt;td&gt;&lt;br&gt;&lt;/td&gt;&lt;/tr&gt;&lt;/tbody&gt;&lt;/table&gt;" style="verticalAlign=top;align=left;overflow=fill;html=1;labelBackgroundColor=#fafafa;" vertex="1" parent="1">
          <mxGeometry x="490" y="980" width="180" height="90" as="geometry" />
        </mxCell>
      </root>
    </mxGraphModel>
  </diagram>
</mxfile>
